<?xml version="1.0" standalone="no"?>
<!DOCTYPE svg PUBLIC "-//W3C//DTD SVG 20010904//EN"
 "http://www.w3.org/TR/2001/REC-SVG-20010904/DTD/svg10.dtd">
<svg version="1.0" xmlns="http://www.w3.org/2000/svg"
 width="300.000000pt" height="300.000000pt" viewBox="0 0 300.000000 300.000000"
 preserveAspectRatio="xMidYMid meet">
<metadata>
Created by potrace 1.11, written by Peter Selinger 2001-2013
</metadata>
<g transform="translate(0.000000,300.000000) scale(0.100000,-0.100000)"
fill="#000000" stroke="none">
<path d="M1120 2442 c-55 -18 -106 -55 -115 -82 -4 -11 -10 -18 -14 -16 -9 6
-7 -31 2 -40 4 -4 7 -14 7 -23 0 -14 -2 -14 -10 -1 -5 8 -10 10 -10 4 0 -6 3
-14 7 -17 13 -14 11 -56 -4 -61 -8 -3 -18 -4 -22 -2 -4 3 -7 -3 -8 -12 -1 -9
-7 -30 -14 -47 -7 -16 -13 -35 -15 -42 -6 -32 -38 -119 -46 -130 -6 -7 -14
-10 -19 -7 -5 3 -8 0 -7 -8 2 -7 -3 -12 -10 -10 -6 1 -11 -1 -11 -5 1 -5 0
-10 -1 -13 -2 -6 -9 -33 -13 -55 -2 -8 -6 -17 -9 -20 -3 -3 -155 -6 -337 -5
-230 0 -331 -3 -331 -10 0 -6 -4 -9 -10 -5 -5 3 -16 -8 -25 -25 -12 -23 -12
-30 -3 -30 10 0 10 -2 1 -8 -15 -10 -17 -472 -2 -472 6 0 8 -4 5 -8 -9 -15 28
-38 59 -37 32 0 40 18 21 45 -9 13 -9 13 6 2 9 -7 15 -22 13 -32 -3 -17 6 -18
136 -19 80 0 137 3 134 9 -3 5 -1 12 5 15 6 4 9 1 8 -7 -2 -9 11 -14 40 -16
46 -3 49 -7 26 -40 -8 -12 -13 -22 -9 -22 5 0 -43 -81 -54 -90 -20 -16 -41
-64 -41 -93 0 -19 -3 -37 -7 -40 -4 -4 -8 -26 -10 -50 -3 -23 -9 -44 -14 -45
-5 -2 -7 -8 -4 -13 10 -16 -6 -79 -19 -72 -7 4 -6 1 1 -9 7 -8 10 -18 7 -21
-3 -3 -8 -23 -10 -44 -4 -46 -23 -94 -44 -111 -10 -9 -11 -11 -1 -6 11 5 13 3
8 -10 -4 -10 -7 -20 -7 -22 0 -3 -4 -2 -10 1 -6 3 -7 -1 -4 -10 4 -8 1 -22 -6
-30 -16 -20 -8 -27 31 -30 22 -2 27 0 18 6 -10 6 -6 9 14 10 15 1 30 2 35 3 4
2 27 8 52 15 43 12 52 15 100 25 11 3 25 8 30 11 5 3 19 8 30 11 11 2 30 7 43
10 12 3 29 6 37 7 8 1 25 8 38 15 12 7 22 10 22 6 0 -3 8 0 17 7 11 10 14 10
9 2 -4 -7 -2 -13 3 -13 6 0 11 5 11 11 0 5 5 7 12 3 7 -5 5 -11 -7 -21 -11 -7
-14 -13 -9 -13 6 0 15 5 21 11 7 7 17 8 25 3 16 -11 42 -15 33 -6 -4 4 -10 7
-13 8 -33 4 -56 31 -27 31 8 0 15 -4 15 -9 0 -5 5 -6 10 -3 6 4 8 11 5 16 -4
5 -1 9 5 9 7 0 9 -7 6 -15 -7 -18 16 -30 41 -21 12 5 13 10 5 18 -20 20 32 54
54 34 8 -8 7 -14 -5 -24 -9 -7 -10 -11 -3 -7 7 4 21 1 30 -7 15 -11 15 -11 6
2 -17 22 17 75 36 57 10 -10 12 -8 6 7 -5 16 -4 17 9 6 10 -8 15 -9 15 -2 0 6
10 16 21 23 15 8 19 8 15 0 -4 -6 -3 -11 3 -11 5 0 11 5 13 11 2 5 10 11 18
12 8 2 21 6 29 11 8 5 16 3 22 -5 6 -10 9 -10 9 -2 0 14 59 48 68 39 3 -3 14
1 24 11 10 9 18 13 18 9 0 -4 10 -1 23 6 12 7 30 11 41 9 11 -1 16 2 12 8 -7
10 6 15 27 12 4 -1 10 6 13 14 5 13 9 13 22 3 13 -11 14 -11 8 0 -11 18 21 41
48 35 17 -4 18 -3 6 6 -13 9 -13 11 3 11 9 0 17 5 17 12 0 6 9 3 20 -7 11 -10
20 -13 20 -7 0 7 -5 12 -11 12 -5 0 -8 4 -5 9 7 11 86 53 86 45 0 -2 10 4 22
16 12 11 27 20 32 20 14 -1 -29 -36 -71 -58 -25 -13 -30 -21 -23 -32 8 -13 10
-13 10 1 0 16 46 43 53 31 2 -4 2 -1 1 6 -2 7 8 18 21 24 14 6 25 18 25 26 0
8 6 12 15 9 8 -4 17 -1 21 5 5 7 2 8 -7 3 -12 -8 -12 -6 0 8 15 18 26 23 16 7
-3 -5 -2 -10 3 -10 5 0 12 9 15 20 7 28 26 25 21 -2 -4 -21 -4 -21 4 -3 5 11
7 26 4 33 -2 8 5 16 17 19 11 3 21 10 21 15 0 5 -5 6 -12 2 -7 -4 -8 -3 -4 5
4 6 12 9 17 6 5 -4 9 -1 9 6 0 18 55 76 68 71 7 -2 10 2 7 11 -4 8 4 21 19 31
31 20 47 21 40 1 -4 -8 -10 -13 -14 -10 -5 3 -11 1 -15 -5 -4 -6 -12 -7 -18
-3 -7 4 -6 0 2 -10 7 -9 19 -17 25 -17 6 0 5 4 -3 9 -15 10 -3 20 20 16 10 -2
16 4 15 14 -1 14 13 16 97 19 68 2 97 6 97 15 0 9 2 9 8 -1 6 -9 36 -12 113
-10 100 3 104 4 103 25 -1 13 2 20 7 18 4 -3 6 -14 4 -25 -4 -18 4 -19 215
-17 188 2 222 4 236 18 20 21 27 88 11 108 -7 8 -7 12 -1 8 14 -8 13 91 0 112
-6 9 -5 12 1 8 13 -8 12 92 -1 112 -6 10 -6 12 2 7 9 -5 11 18 10 83 0 55 -5
88 -11 84 -5 -3 -6 3 -3 15 7 21 -17 38 -36 25 -7 -3 -8 -1 -4 5 5 8 -1 12
-14 12 -14 0 -19 -4 -14 -12 5 -9 2 -9 -9 1 -14 11 -20 11 -34 0 -11 -10 -14
-10 -9 -1 8 13 -9 15 -94 13 -25 -1 -40 2 -34 6 10 8 22 31 32 63 2 8 4 53 5
100 0 70 -4 94 -24 138 -20 44 -32 56 -74 76 -66 31 -105 43 -190 56 -38 6
-81 13 -95 15 -14 2 -50 7 -80 11 -30 3 -68 7 -85 9 -16 2 -68 7 -115 10 -109
8 -122 10 -329 51 -95 19 -200 37 -232 41 -32 3 -57 9 -55 12 2 3 -15 6 -37 7
-23 1 -80 3 -127 6 -60 4 -98 1 -130 -10z m-910 -624 c0 -4 -4 -8 -9 -8 -6 0
-12 4 -15 8 -3 5 1 9 9 9 8 0 15 -4 15 -9z m160 0 c0 -4 -4 -8 -9 -8 -6 0 -12
4 -15 8 -3 5 1 9 9 9 8 0 15 -4 15 -9z m160 0 c0 -4 -4 -8 -9 -8 -6 0 -12 4
-15 8 -3 5 1 9 9 9 8 0 15 -4 15 -9z m120 -3 c-5 -7 -9 -14 -7 -16 1 -2 0 -3
-2 -1 -11 7 -7 29 5 29 9 0 11 -4 4 -12z m37 8 c-4 -3 -2 -11 3 -18 7 -8 5
-12 -4 -12 -8 0 -12 7 -11 16 5 22 4 21 12 21 3 0 3 -3 0 -7z m2023 -3 c0 -5
-2 -10 -4 -10 -3 0 -8 5 -11 10 -3 6 -1 10 4 10 6 0 11 -4 11 -10z m172 -15
c2 3 5 -2 5 -10 0 -10 -4 -12 -12 -5 -7 5 -14 8 -17 5 -2 -3 -5 2 -5 10 0 10
4 12 12 5 7 -5 14 -8 17 -5z m-2718 -3 c3 -5 -1 -9 -9 -9 -8 0 -12 4 -9 9 3 4
7 8 9 8 2 0 6 -4 9 -8z m597 -9 c13 -16 12 -17 -3 -4 -10 7 -18 15 -18 17 0 8
8 3 21 -13z m-555 -27 c0 -14 -3 -23 -7 -20 -6 3 -6 22 0 42 3 10 7 -2 7 -22z
m160 0 c0 -14 -3 -23 -7 -20 -6 3 -6 22 0 42 3 10 7 -2 7 -22z m160 0 c0 -14
-3 -23 -7 -20 -6 3 -6 22 0 42 3 10 7 -2 7 -22z m-377 1 c8 -10 7 -14 -2 -14
-8 0 -14 6 -14 14 0 7 1 13 2 13 2 0 8 -6 14 -13z m161 -8 c0 -5 -4 -9 -8 -9
-5 0 -9 7 -9 15 0 8 4 12 9 9 4 -3 8 -9 8 -15z m160 0 c0 -5 -4 -9 -8 -9 -5 0
-9 7 -9 15 0 8 4 12 9 9 4 -3 8 -9 8 -15z m160 0 c0 -5 -4 -9 -8 -9 -5 0 -9 7
-9 15 0 8 4 12 9 9 4 -3 8 -9 8 -15z m2230 5 c0 -8 -19 -13 -24 -6 -3 5 1 9 9
9 8 0 15 -2 15 -3z m30 2 c0 -3 -4 -8 -10 -11 -5 -3 -10 -1 -10 4 0 6 5 11 10
11 6 0 10 -2 10 -4z m-2646 -24 c3 -5 -1 -9 -9 -9 -8 0 -12 4 -9 9 3 4 7 8 9
8 2 0 6 -4 9 -8z m160 0 c3 -5 -1 -9 -9 -9 -8 0 -12 4 -9 9 3 4 7 8 9 8 2 0 6
-4 9 -8z m160 0 c3 -5 -1 -9 -9 -9 -8 0 -12 4 -9 9 3 4 7 8 9 8 2 0 6 -4 9 -8z
m2260 -32 c-6 -6 -10 -3 -10 10 0 13 4 16 10 10 7 -7 7 -13 0 -20z m-2324 14
c0 -8 -19 -13 -24 -6 -3 5 1 9 9 9 8 0 15 -2 15 -3z m2224 -2 c3 -5 -1 -9 -9
-9 -8 0 -12 4 -9 9 3 4 7 8 9 8 2 0 6 -4 9 -8z m146 0 c0 -5 -7 -9 -15 -9 -8
0 -12 4 -9 9 3 4 9 8 15 8 5 0 9 -4 9 -8z m-2540 -27 c-5 -7 -8 -14 -5 -17 3
-2 -2 -5 -10 -5 -10 0 -12 4 -5 12 5 7 8 14 5 17 -3 2 2 5 10 5 10 0 12 -4 5
-12z m35 -4 c3 -5 2 -12 -3 -15 -5 -3 -9 1 -9 9 0 17 3 19 12 6z m-205 -6 c0
-2 -6 -8 -13 -14 -10 -8 -14 -7 -14 2 0 8 6 14 14 14 7 0 13 -1 13 -2z m47
-10 c0 -8 -4 -12 -9 -9 -5 3 -6 10 -3 15 9 13 12 11 12 -6z m2568 6 c-9 -8
-36 -10 -30 -2 2 4 11 8 20 8 8 0 13 -3 10 -6z m89 0 c-8 -8 -34 -10 -38 -2
-3 4 6 7 19 7 14 0 22 -2 19 -5z m21 -20 c3 -5 2 -12 -3 -15 -5 -3 -9 1 -9 9
0 17 3 19 12 6z m-2575 -22 c0 -5 -4 -9 -8 -9 -5 0 -9 7 -9 15 0 8 4 12 9 9 4
-3 8 -9 8 -15z m-145 -9 c10 -11 16 -20 13 -20 -3 0 -13 9 -23 20 -10 11 -16
20 -13 20 3 0 13 -9 23 -20z m45 10 c0 -5 -2 -10 -4 -10 -3 0 -8 5 -11 10 -3
6 -1 10 4 10 6 0 11 -4 11 -10z m480 -14 c0 -2 -7 -7 -16 -10 -8 -3 -12 -2 -9
4 6 10 25 14 25 6z m2076 -20 c0 -14 -3 -23 -7 -20 -6 3 -6 22 0 42 3 10 7 -2
7 -22z m104 -7 c0 -5 -4 -9 -8 -9 -5 0 -9 7 -9 15 0 8 4 12 9 9 4 -3 8 -9 8
-15z m-2576 3 c3 -5 -1 -9 -9 -9 -8 0 -12 4 -9 9 3 4 7 8 9 8 2 0 6 -4 9 -8z
m206 2 c0 -8 -19 -13 -24 -6 -3 5 1 9 9 9 8 0 15 -2 15 -3z m25 -4 c3 -5 1
-10 -4 -10 -6 0 -11 5 -11 10 0 6 2 10 4 10 3 0 8 -4 11 -10z m2195 4 c0 -8
-19 -13 -24 -6 -3 5 1 9 9 9 8 0 15 -2 15 -3z m-2540 -18 c0 -2 -8 -10 -17
-17 -16 -13 -17 -12 -4 4 13 16 21 21 21 13z m26 -11 c-1 -8 -5 -17 -8 -21 -5
-4 -4 16 1 34 3 9 9 -1 7 -13z m242 -4 c-7 -9 -13 -18 -15 -20 -1 -2 -1 5 0
16 0 11 7 20 14 20 10 0 10 -4 1 -16z m2356 11 c3 -5 -1 -9 -9 -9 -8 0 -12 4
-9 9 3 4 7 8 9 8 2 0 6 -4 9 -8z m-2494 -16 c0 -3 -4 -8 -10 -11 -5 -3 -10 -1
-10 4 0 6 5 11 10 11 6 0 10 -2 10 -4z m-145 -25 c3 -5 2 -12 -3 -15 -5 -3 -9
1 -9 9 0 17 3 19 12 6z m85 1 c0 -5 -7 -9 -15 -9 -8 0 -12 4 -9 9 3 4 9 8 15
8 5 0 9 -4 9 -8z m37 -17 c0 -8 -4 -12 -9 -9 -5 3 -6 10 -3 15 9 13 12 11 12
-6z m-146 -12 c12 -16 12 -17 -2 -6 -9 7 -20 9 -24 5 -5 -4 -5 -1 -1 6 9 16
11 15 27 -5z m2546 0 c0 -9 -4 -10 -14 -2 -7 6 -13 12 -13 14 0 1 6 2 13 2 8
0 14 -6 14 -14z m-2467 -8 c0 -2 -6 -8 -13 -14 -10 -8 -14 -7 -14 2 0 8 6 14
14 14 7 0 13 -1 13 -2z m34 -3 c3 -5 -1 -9 -9 -9 -8 0 -12 4 -9 9 3 4 7 8 9 8
2 0 6 -4 9 -8z m193 -14 c2 -17 0 -19 -7 -8 -5 8 -6 18 -4 22 8 12 10 10 11
-14z m2283 14 c0 -5 -7 -9 -15 -9 -8 0 -12 4 -9 9 3 4 9 8 15 8 5 0 9 -4 9 -8z
m140 -23 c0 -5 -4 -9 -8 -9 -5 0 -9 7 -9 15 0 8 4 12 9 9 4 -3 8 -9 8 -15z
m-2556 3 c3 -5 -1 -9 -9 -9 -8 0 -12 4 -9 9 3 4 7 8 9 8 2 0 6 -4 9 -8z m2456
-1 c0 -6 -4 -12 -8 -15 -5 -3 -9 1 -9 9 0 8 4 15 9 15 4 0 8 -4 8 -9z m-2550
-37 c0 -8 -19 -13 -24 -6 -3 5 1 9 9 9 8 0 15 -2 15 -3z m30 2 c0 -3 -4 -8
-10 -11 -5 -3 -10 -1 -10 4 0 6 5 11 10 11 6 0 10 -2 10 -4z m70 -1 c0 -2 -6
-8 -13 -14 -10 -8 -14 -7 -14 2 0 8 6 14 14 14 7 0 13 -1 13 -2z m2367 -10 c0
-8 -4 -12 -9 -9 -5 3 -6 10 -3 15 9 13 12 11 12 -6z m-2323 -14 c3 -4 -4 -17
-17 -27 -22 -19 -22 -19 -4 2 9 11 14 24 10 27 -3 4 -4 7 0 7 3 0 8 -4 11 -9z
m2364 -10 c-7 -9 -13 -18 -15 -20 -1 -2 -1 5 0 16 0 11 7 20 14 20 10 0 10 -4
1 -16z m-2543 0 c3 -5 2 -12 -3 -15 -5 -3 -9 1 -9 9 0 17 3 19 12 6z m122 -16
c0 -8 -4 -12 -9 -9 -5 3 -6 10 -3 15 9 13 12 11 12 -6z m263 5 c0 -5 -5 -10
-11 -10 -5 0 -7 5 -4 10 3 6 8 10 11 10 2 0 4 -4 4 -10z m2125 0 c3 -6 -1 -7
-9 -4 -18 7 -21 14 -7 14 6 0 13 -4 16 -10z m-2270 -20 c3 -5 1 -10 -4 -10 -6
0 -11 5 -11 10 0 6 2 10 4 10 3 0 8 -4 11 -10z m1945 -15 c14 -19 14 -19 -2
-6 -10 7 -18 18 -18 24 0 6 1 8 3 6 1 -2 9 -13 17 -24z m435 16 c3 -5 2 -12
-3 -15 -5 -3 -9 1 -9 9 0 17 3 19 12 6z m85 5 c0 -2 -7 -7 -16 -10 -8 -3 -12
-2 -9 4 6 10 25 14 25 6z m-2703 -19 c0 -7 -9 -14 -19 -14 -10 -1 -18 3 -18 8
0 6 4 8 9 4 5 -3 12 -1 16 5 8 13 12 13 12 -3z m2349 -9 c12 -14 13 -18 3 -10
-9 6 -18 10 -21 7 -2 -3 -5 2 -5 10 0 19 0 19 23 -7z m-2286 2 c0 -5 -5 -10
-11 -10 -5 0 -7 5 -4 10 3 6 8 10 11 10 2 0 4 -4 4 -10z m34 2 c3 -5 -1 -9 -9
-9 -8 0 -12 4 -9 9 3 4 7 8 9 8 2 0 6 -4 9 -8z m90 0 c3 -5 -1 -9 -9 -9 -8 0
-12 4 -9 9 3 4 7 8 9 8 2 0 6 -4 9 -8z m73 -7 c0 -8 -4 -12 -9 -9 -5 3 -6 10
-3 15 9 13 12 11 12 -6z m123 11 c0 -2 -7 -7 -16 -10 -8 -3 -12 -2 -9 4 6 10
25 14 25 6z m1634 -12 c3 -8 2 -12 -4 -9 -6 3 -10 10 -10 16 0 14 7 11 14 -7z
m443 1 c0 -8 -4 -12 -9 -9 -4 3 -8 9 -8 15 0 5 4 9 8 9 5 0 9 -7 9 -15z m-232
-15 c3 -6 -1 -7 -9 -4 -18 7 -21 14 -7 14 6 0 13 -4 16 -10z m432 -15 c0 -8
-4 -12 -9 -9 -5 3 -6 10 -3 15 9 13 12 11 12 -6z m-2697 -4 c0 -6 -4 -12 -8
-15 -5 -3 -9 1 -9 9 0 8 4 15 9 15 4 0 8 -4 8 -9z m74 1 c3 -5 -1 -9 -9 -9 -8
0 -12 4 -9 9 3 4 7 8 9 8 2 0 6 -4 9 -8z m2548 -6 c-4 -6 -7 -14 -7 -18 0 -19
-11 -14 -11 6 0 12 6 23 13 23 6 0 9 -5 5 -11z m42 6 c3 -5 -1 -9 -9 -9 -8 0
-12 4 -9 9 3 4 7 8 9 8 2 0 6 -4 9 -8z m-2527 -15 c0 -8 -6 -14 -14 -14 -9 0
-10 4 -2 14 6 7 12 13 14 13 1 0 2 -6 2 -13z m82 0 c8 -10 7 -14 -2 -14 -8 0
-14 6 -14 14 0 7 1 13 2 13 2 0 8 -6 14 -13z m2240 0 c8 -10 7 -14 -2 -14 -8
0 -14 6 -14 14 0 7 1 13 2 13 2 0 8 -6 14 -13z m-379 -1 c0 -3 -4 -8 -10 -11
-5 -3 -10 -1 -10 4 0 6 5 11 10 11 6 0 10 -2 10 -4z m449 -10 c9 -11 9 -16 -1
-22 -7 -4 -10 -4 -6 1 4 4 3 14 -3 22 -6 7 -9 13 -6 13 2 0 10 -6 16 -14z
m151 0 c0 -2 -8 -10 -17 -17 -16 -13 -17 -12 -4 4 13 16 21 21 21 13z m-2665
-24 c-3 -3 -11 0 -18 7 -9 10 -8 11 6 5 10 -3 15 -9 12 -12z m859 -597 c-4 -8
-10 -12 -15 -9 -11 6 -2 24 11 24 5 0 7 -7 4 -15z m-94 -40 c10 -13 9 -15 -8
-15 -15 0 -20 5 -16 15 4 8 7 15 9 15 1 0 8 -7 15 -15z"/>
<path d="M2706 1898 c3 -5 10 -6 15 -3 13 9 11 12 -6 12 -8 0 -12 -4 -9 -9z"/>
<path d="M1954 1160 c0 -13 4 -16 10 -10 7 7 7 13 0 20 -6 6 -10 3 -10 -10z"/>
<path d="M1908 1153 c6 -2 10 -9 7 -13 -3 -5 0 -12 6 -16 8 -4 9 -3 5 4 -4 7
-1 12 6 12 9 0 9 3 -2 10 -8 5 -19 9 -25 9 -5 0 -4 -3 3 -6z"/>
<path d="M1890 1126 c0 -8 4 -17 9 -20 5 -4 7 3 4 14 -6 23 -13 26 -13 6z"/>
<path d="M1874 1086 c1 -8 5 -18 8 -22 4 -3 5 1 4 10 -1 8 -5 18 -8 22 -4 3
-5 -1 -4 -10z"/>
<path d="M1837 1069 c7 -7 15 -10 18 -7 3 3 -2 9 -12 12 -14 6 -15 5 -6 -5z"/>
<path d="M1776 1002 c-2 -4 -1 -14 4 -22 7 -11 9 -9 7 8 -1 24 -3 26 -11 14z"/>
<path d="M1755 970 c-4 -6 -11 -8 -16 -5 -5 4 -9 1 -9 -4 0 -16 16 -13 30 4 7
8 10 15 7 15 -3 0 -9 -5 -12 -10z"/>
<path d="M1730 919 c0 -5 5 -7 10 -4 6 3 10 8 10 11 0 2 -4 4 -10 4 -5 0 -10
-5 -10 -11z"/>
<path d="M1693 905 c0 -8 4 -12 9 -9 5 3 6 10 3 15 -9 13 -12 11 -12 -6z"/>
<path d="M1550 874 c0 -9 -5 -12 -12 -8 -7 4 -10 3 -5 -1 4 -5 16 -9 27 -10
14 -1 17 2 10 10 -5 7 -7 15 -3 18 3 4 1 7 -5 7 -7 0 -12 -7 -12 -16z"/>
<path d="M1746 878 c3 -5 10 -6 15 -3 13 9 11 12 -6 12 -8 0 -12 -4 -9 -9z"/>
<path d="M1495 869 c-4 -6 -5 -12 -2 -15 2 -3 7 2 10 11 7 17 1 20 -8 4z"/>
<path d="M1593 865 c0 -8 4 -12 9 -9 5 3 6 10 3 15 -9 13 -12 11 -12 -6z"/>
<path d="M1510 851 c0 -5 7 -12 16 -15 14 -5 15 -4 4 9 -14 17 -20 19 -20 6z"/>
<path d="M1454 829 c1 -7 10 -13 19 -15 9 -1 15 2 11 7 -3 5 -9 7 -14 4 -4 -3
-11 0 -13 5 -3 6 -4 5 -3 -1z"/>
<path d="M1496 827 c3 -10 9 -15 12 -12 3 3 0 11 -7 18 -10 9 -11 8 -5 -6z"/>
<path d="M1422 800 c0 -14 2 -19 5 -12 2 6 2 18 0 25 -3 6 -5 1 -5 -13z"/>
<path d="M1375 800 c3 -5 -1 -10 -9 -10 -9 0 -16 -5 -16 -10 0 -7 7 -7 20 0
17 9 20 30 4 30 -3 0 -2 -4 1 -10z"/>
<path d="M1326 777 c3 -10 9 -15 12 -12 3 3 0 11 -7 18 -10 9 -11 8 -5 -6z"/>
<path d="M1396 782 c-2 -4 -1 -14 3 -21 6 -9 11 -10 15 -2 4 6 2 11 -4 11 -6
0 -8 5 -5 10 3 6 4 10 1 10 -3 0 -7 -4 -10 -8z"/>
<path d="M1470 779 c0 -5 5 -7 10 -4 6 3 10 8 10 11 0 2 -4 4 -10 4 -5 0 -10
-5 -10 -11z"/>
<path d="M1270 759 c0 -5 5 -7 10 -4 6 3 10 8 10 11 0 2 -4 4 -10 4 -5 0 -10
-5 -10 -11z"/>
<path d="M1311 757 c-1 -12 -6 -16 -13 -11 -7 4 -9 3 -5 -1 12 -13 36 -15 44
-3 3 6 1 8 -5 4 -6 -3 -13 2 -15 11 -4 17 -5 17 -6 0z"/>
<path d="M1235 739 c-4 -6 -4 -13 -1 -16 3 -4 6 -1 6 6 0 7 5 9 10 6 6 -3 10
-1 10 4 0 14 -17 14 -25 0z"/>
<path d="M1193 727 c8 -22 -4 -29 -18 -10 -9 13 -14 13 -20 3 -5 -8 -4 -11 3
-6 5 3 12 1 14 -6 2 -6 12 -12 21 -14 10 -1 14 2 10 9 -4 6 0 8 10 4 22 -8 21
-5 -5 17 -16 14 -20 15 -15 3z"/>
<path d="M1267 727 c-3 -7 3 -13 14 -13 13 0 15 3 7 13 -6 7 -12 13 -13 13 -2
0 -5 -6 -8 -13z"/>
<path d="M1376 727 c3 -10 9 -15 12 -12 3 3 0 11 -7 18 -10 9 -11 8 -5 -6z"/>
<path d="M1106 694 c-8 -22 -4 -25 11 -9 7 8 9 16 4 19 -5 3 -12 -1 -15 -10z"/>
<path d="M1136 685 c-3 -8 -1 -15 4 -15 6 0 10 7 10 15 0 8 -2 15 -4 15 -2 0
-6 -7 -10 -15z"/>
<path d="M1217 675 c-4 -8 -3 -16 1 -19 4 -3 9 4 9 15 2 23 -3 25 -10 4z"/>
<path d="M1046 671 c6 -6 20 -13 32 -16 16 -3 19 0 15 13 -4 10 -8 12 -11 4
-3 -9 -9 -9 -25 -1 -17 9 -19 9 -11 0z"/>
<path d="M955 651 c-3 -5 0 -13 6 -17 7 -4 9 -3 5 4 -3 5 0 13 6 15 9 4 10 6
1 6 -6 1 -14 -3 -18 -8z"/>
<path d="M1113 647 c0 -8 6 -14 14 -14 9 0 10 4 2 14 -6 7 -12 13 -14 13 -1 0
-2 -6 -2 -13z"/>
<path d="M760 600 c-9 -6 -10 -10 -3 -10 6 0 15 5 18 10 8 12 4 12 -15 0z"/>
<path d="M783 588 c-20 -26 -22 -35 -9 -35 9 0 12 7 8 16 -5 14 -3 14 11 2 11
-9 17 -10 17 -2 0 6 -5 11 -11 11 -5 0 -7 5 -4 10 9 14 -1 12 -12 -2z"/>
<path d="M835 581 c-3 -5 0 -13 6 -17 7 -4 9 -3 5 4 -3 5 0 13 6 15 9 4 10 6
1 6 -6 1 -14 -3 -18 -8z"/>
<path d="M950 586 c0 -2 7 -7 16 -10 8 -3 12 -2 9 4 -6 10 -25 14 -25 6z"/>
<path d="M737 565 c-4 -8 -3 -16 1 -19 4 -3 9 4 9 15 2 23 -3 25 -10 4z"/>
<path d="M630 564 c0 -15 -50 -37 -50 -22 0 6 -3 9 -6 5 -3 -3 2 -16 11 -29
10 -13 15 -16 12 -7 -4 11 3 20 19 28 18 8 24 8 24 -1 0 -6 3 -9 6 -5 3 3 1
14 -5 24 -6 10 -11 13 -11 7z"/>
<path d="M657 559 c7 -7 15 -10 18 -7 3 3 -2 9 -12 12 -14 6 -15 5 -6 -5z"/>
<path d="M690 560 c0 -5 5 -10 10 -10 6 0 10 5 10 10 0 6 -4 10 -10 10 -5 0
-10 -4 -10 -10z"/>
<path d="M850 546 c0 -2 7 -7 16 -10 8 -3 12 -2 9 4 -6 10 -25 14 -25 6z"/>
<path d="M523 524 c-4 -11 -8 -12 -13 -4 -5 8 -10 8 -14 2 -3 -5 1 -12 9 -16
9 -3 19 3 25 14 6 11 8 20 5 20 -3 0 -8 -7 -12 -16z"/>
<path d="M670 530 c-9 -6 -10 -10 -3 -10 6 0 15 5 18 10 8 12 4 12 -15 0z"/>
<path d="M795 529 c-4 -6 -5 -12 -2 -15 2 -3 7 2 10 11 7 17 1 20 -8 4z"/>
<path d="M553 523 c4 -3 0 -11 -8 -17 -13 -9 -11 -11 9 -11 20 0 22 3 15 18
-5 9 -13 17 -16 17 -3 0 -3 -3 0 -7z"/>
<path d="M715 520 c-3 -5 -1 -10 4 -10 6 0 11 5 11 10 0 6 -2 10 -4 10 -3 0
-8 -4 -11 -10z"/>
<path d="M455 510 c-7 -11 22 -26 32 -16 4 3 -1 6 -11 6 -9 0 -14 5 -11 10 3
6 4 10 1 10 -3 0 -8 -5 -11 -10z"/>
<path d="M635 511 c-3 -5 -2 -12 3 -15 5 -3 9 1 9 9 0 17 -3 19 -12 6z"/>
<path d="M414 479 c0 -12 4 -15 12 -9 6 6 14 7 17 3 4 -3 7 -2 7 4 0 6 -8 13
-18 15 -12 4 -18 -1 -18 -13z"/>
</g>
</svg>
